<svg id="visual" viewBox="0 0 1900 800" width="1900" height="800" xmlns="http://www.w3.org/2000/svg" xmlns:xlink="http://www.w3.org/1999/xlink" version="1.1"><path d="M0 729L10.2 732.7C20.3 736.3 40.7 743.7 61.2 752.8C81.7 762 102.3 773 122.8 770.3C143.3 767.7 163.7 751.3 184 751C204.3 750.7 224.7 766.3 245 775.8C265.3 785.3 285.7 788.7 306.2 779.8C326.7 771 347.3 750 367.8 742C388.3 734 408.7 739 429 746.5C449.3 754 469.7 764 490.2 772.2C510.7 780.3 531.3 786.7 551.8 779.8C572.3 773 592.7 753 613 749.2C633.3 745.3 653.7 757.7 674 762C694.3 766.3 714.7 762.7 735.2 755.3C755.7 748 776.3 737 796.8 736.5C817.3 736 837.7 746 858 751C878.3 756 898.7 756 919.2 751.7C939.7 747.3 960.3 738.7 980.8 738C1001.3 737.3 1021.7 744.7 1042 745.3C1062.3 746 1082.7 740 1103.2 735.8C1123.7 731.7 1144.3 729.3 1164.8 728.7C1185.3 728 1205.7 729 1226 734.2C1246.3 739.3 1266.7 748.7 1287 758.2C1307.3 767.7 1327.7 777.3 1348.2 779.3C1368.7 781.3 1389.3 775.7 1409.8 767.3C1430.3 759 1450.7 748 1471 745C1491.3 742 1511.7 747 1532.2 754.3C1552.7 761.7 1573.3 771.3 1593.8 772.5C1614.3 773.7 1634.7 766.3 1655 764.8C1675.3 763.3 1695.7 767.7 1716 763.2C1736.3 758.7 1756.7 745.3 1777.2 741.3C1797.7 737.3 1818.3 742.7 1838.8 746.2C1859.3 749.7 1879.7 751.3 1889.8 752.2L1900 753L1900 801L1889.8 801C1879.7 801 1859.3 801 1838.8 801C1818.3 801 1797.7 801 1777.2 801C1756.7 801 1736.3 801 1716 801C1695.7 801 1675.3 801 1655 801C1634.7 801 1614.3 801 1593.8 801C1573.3 801 1552.7 801 1532.2 801C1511.7 801 1491.3 801 1471 801C1450.7 801 1430.3 801 1409.8 801C1389.3 801 1368.7 801 1348.2 801C1327.7 801 1307.3 801 1287 801C1266.7 801 1246.3 801 1226 801C1205.7 801 1185.3 801 1164.8 801C1144.3 801 1123.7 801 1103.2 801C1082.7 801 1062.3 801 1042 801C1021.7 801 1001.3 801 980.8 801C960.3 801 939.7 801 919.2 801C898.7 801 878.3 801 858 801C837.7 801 817.3 801 796.8 801C776.3 801 755.7 801 735.2 801C714.7 801 694.3 801 674 801C653.7 801 633.3 801 613 801C592.7 801 572.3 801 551.8 801C531.3 801 510.7 801 490.2 801C469.7 801 449.3 801 429 801C408.7 801 388.3 801 367.8 801C347.3 801 326.7 801 306.2 801C285.7 801 265.3 801 245 801C224.7 801 204.3 801 184 801C163.7 801 143.3 801 122.8 801C102.3 801 81.7 801 61.2 801C40.7 801 20.3 801 10.2 801L0 801Z" fill="#fdf5fa" stroke-linecap="round" stroke-linejoin="miter"></path></svg>