<?xml version="1.0" standalone="no"?>
<!DOCTYPE svg PUBLIC "-//W3C//DTD SVG 20010904//EN"
 "http://www.w3.org/TR/2001/REC-SVG-20010904/DTD/svg10.dtd">
<svg version="1.0" xmlns="http://www.w3.org/2000/svg"
 width="200.000000pt" height="200.000000pt" viewBox="0 0 200.000000 200.000000"
 preserveAspectRatio="xMidYMid meet">

<g transform="translate(0.000000,200.000000) scale(0.100000,-0.100000)"
fill="#000000" stroke="none">
<path d="M915 1611 c-150 -25 -269 -85 -376 -191 -133 -131 -193 -275 -193
-460 0 -185 60 -329 193 -460 133 -132 282 -193 471 -193 68 0 128 6 170 17
90 24 205 87 274 148 l58 51 -33 18 c-48 25 -56 24 -113 -20 -107 -82 -222
-121 -356 -121 -243 0 -449 143 -541 375 -20 52 -23 77 -23 185 0 108 3 133
23 185 110 278 392 427 679 360 115 -27 240 -105 304 -190 31 -41 36 -44 80
-45 26 0 49 4 52 9 10 15 -54 99 -120 160 -74 67 -190 132 -279 155 -75 19
-205 27 -270 17z"/>
</g>
</svg>
